# xmcd
#
# Track frame offsets: 
#        150
#        16190
#        35660
#        49293
#        67035
#        81122
#        94050
#        110342
#        126075
#        145130
#        163178
#        184025
#        199475
#        211343
#        227518
#        243308
#        261948
#        276638
#        296258
#        314138
#
# Disc length: 4378 seconds
#
# Revision: 2
# Processed by: cddbd v1.5.1PL0 Copyright (c) Steve Scherf et al.
# Submitted via: ExactAudioCopy v0.95a5
#
DISCID=32111814
DTITLE=Various Artist - This Is Your Country
DYEAR=2001
DGENRE=Country
TTITLE0=Shania Twain - Love Gets Me Every Time
TTITLE1=Travis Tritt - Put Some Drive In Your Country
TTITLE2=Tracy Byrd - Watermelon Crawl
TTITLE3=Tractors - Baby Likes To Rock It
TTITLE4=Terri Clark - Better Things To Do
TTITLE5=Reba McEntire - Climb That Mountain High
TTITLE6=Lee Ann Womack - I'll Think Of A Reason Later
TTITLE7=Toby Keith - Should've Been A Cowboy
TTITLE8=George Strait - I Can Still Make Cheyenne
TTITLE9=Mark Wills - Wish You Were Here
TTITLE10=Vince Gill - If You Ever Have Forever In Mind
TTITLE11=Rebecca Lynn Howard - Out Here In The Water
TTITLE12=Gary Allan - Forever and A Day
TTITLE13=Big House - Cold Outside
TTITLE14=Eric Heatherly - Flowers On The Wall
TTITLE15=Kathy Mattea - 455 Rocket
TTITLE16=Chely Wright - Single White Female
TTITLE17=Sammy Kershaw - Love Of My Life
TTITLE18=Mark Chesnutt - I Don't Want To Miss A Thing
TTITLE19=Lee Greenwood - God Bless The USA
EXTD=
EXTT0=
EXTT1=
EXTT2=
EXTT3=
EXTT4=
EXTT5=
EXTT6=
EXTT7=
EXTT8=
EXTT9=
EXTT10=
EXTT11=
EXTT12=
EXTT13=
EXTT14=
EXTT15=
EXTT16=
EXTT17=
EXTT18=
EXTT19=
PLAYORDER=
